# xmcd CD database file
#
# Track frame offsets:
#	150
#	13108
#	26991
#	41601
#	54070
#	64604
#	74807
#	86860
#	98384
#	111308
#	123603
#	134397
#	146286
#	157856
#	171042
#	182706
#	195700
#	207953
#	221391
#	235424
#	247325
#	261079
#	273384
#	287567
#	298186
#	311724
#	322008
#	336388
#
# Disc length: 4650 seconds
#
# Revision: 1
# Processed by: cddbd v1.5.2PL0 Copyright (c) Steve Scherf et al.
# Submitted via: CDex 1.94
#
DISCID=b612281c
DTITLE=Various Artist - Essential Chess Blues 1.1
DYEAR=2012
DGENRE=Blues
TTITLE0=Muddy Waters - Got My Mojo Working*
TTITLE1=Howlin' Wolf - Smokestack Lightnin'*
TTITLE2=John Lee Hooker - Sugar Mama*
TTITLE3=Big Bill Broonzy - Little City Woman*
TTITLE4=Buddy Guy - I Got My Eyes On You*
TTITLE5=Elmore James - I Can't Hold Out*
TTITLE6=Otis Rush - You Know My Love*
TTITLE7=Little Walter - My Babe*
TTITLE8=Jimmy Witherspoon - When The Lights Go Out*
TTITLE9=Jimmy Rogers - The Last Time*
TTITLE10=Howlin' Wolf - Come To Me Baby*
TTITLE11=Johnny Shines - Joliet Blues*
TTITLE12=Sonny Boy Williamson - Don't Stat Me Talkin'*
TTITLE13=Muddy Waters - Mannish Boy*
TTITLE14=Jimmy McCracklin - Later On*
TTITLE15=Buddy Guy - Let Me Love You Baby*
TTITLE16=Memphis Slim - Walking Alone*
TTITLE17=Jimmy Nelson - Free And Easy Mind*
TTITLE18=Little Walter - Blues With A Feeling*
TTITLE19=Willie Nix - Truckin' Little Woman*
TTITLE20=St Louis Jimmy - So Nice And Kind*
TTITLE21=Jimmy Rogers - What Have I Done*
TTITLE22=Muddy Waters - I Feel Like Going Home*
TTITLE23=Sonny Boy Williamson - Flattenin' Frogs For Snakes*
TTITLE24=John Lee Hooker - It's My Own Fault*
TTITLE25=Jimmy McCracklin - I Know*
TTITLE26=Otis Rush - So Many Roads, So Many Trains*
TTITLE27=Howlin' Wolf - Spoonful*
EXTD=Compilation and ReMastering: Not Now Records: 2012
EXTT0=
EXTT1=
EXTT2=
EXTT3=
EXTT4=
EXTT5=
EXTT6=
EXTT7=
EXTT8=
EXTT9=
EXTT10=
EXTT11=
EXTT12=
EXTT13=
EXTT14=
EXTT15=
EXTT16=
EXTT17=
EXTT18=
EXTT19=
EXTT20=
EXTT21=
EXTT22=
EXTT23=
EXTT24=
EXTT25=
EXTT26=
EXTT27=
PLAYORDER=
